<?xml version="1.0" standalone="no"?>
<!DOCTYPE svg PUBLIC "-//W3C//DTD SVG 20010904//EN"
 "http://www.w3.org/TR/2001/REC-SVG-20010904/DTD/svg10.dtd">
<svg version="1.0" xmlns="http://www.w3.org/2000/svg"
 width="260.000000pt" height="260.000000pt" viewBox="0 0 260.000000 260.000000"
 preserveAspectRatio="xMidYMid meet">
<metadata>
Created by potrace 1.14, written by Peter Selinger 2001-2017
</metadata>
<g transform="translate(0.000000,260.000000) scale(0.100000,-0.100000)"
fill="#000000" stroke="none">
<path d="M2007 1954 c-1 -1 -27 -3 -57 -5 -30 -1 -86 -11 -124 -20 -219 -56
-362 -205 -411 -431 -21 -95 -25 -277 -8 -374 12 -72 59 -224 72 -234 4 -3 20
-26 36 -52 17 -27 34 -48 38 -48 5 0 5 -5 1 -12 -4 -6 -3 -8 4 -4 6 3 14 0 19
-8 4 -7 29 -27 55 -43 26 -17 44 -34 40 -38 -4 -5 -2 -5 4 -2 7 4 28 0 48 -8
20 -8 36 -13 36 -10 0 4 10 -4 23 -17 12 -13 16 -17 10 -8 -11 15 -9 16 18 12
22 -3 27 -7 18 -13 -8 -5 -9 -9 -3 -9 5 0 16 6 22 12 10 10 15 10 22 -2 5 -8
6 -18 4 -22 -3 -4 0 -8 6 -8 6 0 9 8 6 18 -4 12 -1 19 8 19 9 0 13 -4 10 -9
-7 -11 3 -10 26 2 13 7 21 6 30 -5 7 -8 18 -15 24 -15 6 0 4 5 -4 10 -16 11
-16 10 20 15 49 7 85 16 114 31 20 10 33 11 40 4 15 -15 24 -12 36 13 11 21
10 21 -4 3 -9 -11 -18 -17 -21 -14 -3 3 2 13 11 22 15 16 18 16 35 0 11 -10
19 -12 19 -6 0 7 -4 12 -10 12 -18 0 -11 18 10 25 11 3 20 13 20 21 0 12 3 12
20 2 11 -7 20 -17 20 -22 0 -4 -7 -3 -15 4 -10 9 -15 9 -15 1 0 -11 13 -15 39
-11 8 1 20 -4 26 -12 5 -7 24 -22 40 -34 47 -32 59 -38 52 -27 -4 6 2 13 13
16 10 3 21 0 24 -7 2 -6 3 18 2 54 -2 44 1 69 10 78 11 10 14 10 14 1 0 -7 2
-10 5 -7 3 3 3 13 -1 22 -6 15 -7 15 -20 -1 -12 -17 -13 -17 -10 -1 1 10 11
25 22 33 19 14 19 14 -2 9 -17 -4 -20 -1 -19 16 1 12 8 26 16 31 11 7 10 9 -6
9 l-20 1 20 16 c16 13 17 15 3 10 -22 -8 -23 0 -3 19 11 11 15 12 15 3 0 -7 2
-10 5 -7 3 3 3 13 -1 22 -6 15 -7 15 -18 1 -9 -13 -11 0 -11 57 0 53 4 76 15
85 13 11 13 12 -2 13 -14 0 -16 4 -8 25 7 18 6 25 -2 25 -6 0 -9 2 -7 5 9 8
49 -7 43 -16 -3 -5 -9 -7 -13 -5 -4 3 -8 -1 -8 -9 0 -8 6 -16 13 -19 9 -3 11
1 7 11 -5 12 -3 14 8 8 8 -4 11 -5 7 0 -4 4 -2 15 5 23 10 13 9 14 -2 7 -10
-6 -12 -4 -6 4 5 8 18 11 37 7 27 -5 28 -4 13 10 -9 9 -15 26 -14 38 0 11 1
33 0 47 l-1 27 -258 0 -259 0 1 -56 c1 -53 2 -56 31 -64 17 -4 55 -9 85 -11
l55 -4 0 -169 0 -169 -45 -22 c-58 -29 -152 -39 -219 -23 -28 6 -48 16 -45 21
3 5 -1 6 -9 3 -15 -5 -87 55 -87 74 0 7 -5 12 -11 12 -5 0 -7 5 -4 10 3 6 1
10 -5 10 -14 0 -10 48 5 70 9 13 8 13 -7 1 -10 -7 -15 -18 -11 -24 3 -5 1 -7
-5 -3 -10 6 -28 81 -24 103 2 6 -2 14 -8 18 -8 5 -7 12 2 23 9 10 9 13 1 9 -8
-5 -11 0 -10 13 2 25 6 25 24 3 13 -16 13 -16 4 4 -6 12 -16 23 -23 25 -8 3
-9 11 -3 24 4 10 9 24 10 29 0 6 7 9 14 7 7 -1 10 2 6 8 -5 8 -11 8 -21 -1 -7
-6 -11 -15 -8 -20 3 -5 1 -9 -5 -9 -14 0 -9 39 6 44 15 6 17 32 4 40 -5 4 -7
-4 -4 -16 5 -19 3 -21 -7 -11 -11 10 -11 18 -2 38 7 15 8 24 3 20 -6 -3 -8 7
-7 22 2 16 5 28 6 28 1 0 8 87 11 147 0 9 7 19 15 22 8 3 14 11 14 18 0 9 -3
9 -10 -2 -7 -12 -9 -10 -7 8 0 12 5 22 10 22 4 0 7 6 6 13 -3 27 2 46 16 61 9
8 16 18 15 21 0 3 0 9 0 13 0 17 90 103 100 97 5 -3 10 -2 10 3 0 5 14 15 31
22 26 11 32 11 39 -1 5 -8 4 -20 -3 -29 -10 -13 -10 -13 4 -3 9 7 19 11 23 8
3 -3 2 1 -4 7 -19 22 -11 38 18 36 41 -2 45 -7 27 -36 l-16 -27 20 24 c12 12
18 27 15 32 -7 12 59 -2 67 -13 3 -6 10 -9 15 -8 23 3 46 -9 38 -22 -12 -19
-14 -39 -3 -32 5 3 7 9 4 14 -3 5 0 12 6 16 14 8 31 -16 24 -34 -3 -7 -1 -11
4 -8 4 3 18 -37 31 -89 l22 -95 37 -1 c20 -1 53 -3 74 -3 21 -1 42 3 47 9 5 6
12 37 15 70 5 37 14 64 24 71 9 7 13 16 8 20 -4 4 -7 2 -7 -4 0 -7 -4 -12 -10
-12 -5 0 -10 6 -10 14 0 15 27 30 50 27 13 -2 13 -1 0 8 -9 7 -18 7 -24 1 -14
-14 -23 -12 -23 5 0 8 4 12 9 9 4 -3 8 0 8 5 0 6 -4 11 -8 11 -4 0 -9 19 -11
42 -1 23 -7 46 -14 50 -16 10 -132 44 -177 52 -84 14 -226 26 -233 20z"/>
<path d="M544 1929 c-2 -5 -68 -194 -145 -421 -77 -227 -160 -471 -185 -543
-24 -71 -51 -136 -59 -145 -9 -8 -41 -22 -73 -30 l-57 -15 -3 -53 c-3 -51 -3
-52 25 -52 16 0 35 -6 42 -13 8 -6 11 -7 8 -1 -8 14 56 14 65 0 4 -6 1 -17 -5
-26 -10 -13 -10 -13 5 -2 9 8 14 20 11 28 -3 8 0 14 6 14 6 0 11 -5 11 -11 0
-8 4 -8 13 -2 15 13 47 13 47 0 0 -5 8 -3 17 4 15 12 16 12 10 -6 -7 -20 -7
-20 8 -1 8 11 18 17 21 13 4 -4 1 -13 -6 -22 -7 -8 -8 -15 -4 -15 5 0 15 9 21
19 12 20 53 25 53 8 0 -5 6 -5 12 0 7 6 32 9 55 8 43 -2 65 17 44 38 -7 7 -7
16 0 29 7 12 6 18 -2 18 -6 0 -9 6 -6 14 4 10 -8 15 -44 20 -35 5 -48 10 -43
19 5 9 4 9 -6 0 -17 -16 -44 -5 -30 12 8 10 8 15 -1 21 -7 4 -9 3 -6 -3 4 -6
1 -13 -7 -16 -11 -5 -12 0 -3 24 6 16 15 29 19 29 4 0 5 8 4 18 -4 20 12 67
20 59 3 -3 0 -16 -6 -29 l-11 -23 19 24 c11 13 24 21 30 17 6 -3 13 -3 16 2 2
4 -5 9 -16 9 -12 1 -26 7 -32 13 -8 9 -5 11 13 8 15 -2 26 3 28 12 4 12 2 12
-5 2 -7 -10 -12 -9 -23 4 -9 12 -10 15 -1 10 7 -4 12 -2 12 4 0 6 5 8 12 4 7
-4 8 -3 4 5 -4 6 -12 8 -18 5 -6 -4 -9 -1 -7 5 3 7 8 12 13 11 5 -1 12 4 16
10 5 8 9 7 13 -5 4 -9 3 -14 -2 -11 -5 4 -7 -3 -4 -14 3 -11 9 -20 14 -20 5 0
5 7 2 17 -4 10 -2 14 5 9 6 -3 15 2 21 11 6 10 11 14 11 9 0 -5 8 -2 17 5 14
12 16 12 9 0 -6 -9 -5 -12 5 -9 8 3 23 1 34 -5 18 -9 19 -9 5 8 -14 17 -14 17
6 7 14 -8 24 -8 31 -1 8 8 13 7 18 -1 4 -7 1 -16 -6 -21 -8 -5 -9 -9 -4 -9 6
0 19 10 30 22 12 14 20 18 23 10 2 -8 9 -9 22 -2 12 6 21 7 25 0 4 -6 15 -6
30 0 17 7 25 6 25 -1 0 -7 6 -6 17 2 15 12 16 12 10 -3 -3 -10 -2 -18 3 -18 6
0 10 5 10 11 0 8 5 7 15 -1 9 -7 18 -10 22 -6 3 3 1 6 -5 6 -7 0 -12 5 -12 11
0 8 5 8 15 -1 8 -7 12 -16 9 -21 -3 -5 -1 -9 4 -9 8 0 15 -22 23 -68 0 -4 6
-16 11 -27 6 -10 16 -40 23 -66 l13 -47 -76 -14 -77 -13 -1 -52 -2 -53 40 0
c29 0 37 -3 32 -12 -5 -9 -2 -9 9 1 13 10 17 10 17 1 0 -9 4 -9 13 -2 15 12
107 11 107 -2 0 -4 8 -2 17 5 15 12 16 12 10 -3 -3 -10 -2 -20 4 -23 5 -4 9
-3 8 2 -3 19 2 33 12 33 6 0 8 -9 4 -22 l-7 -23 16 22 c16 21 56 28 56 10 0
-5 7 -4 15 3 17 14 21 0 4 -17 -9 -9 -7 -11 7 -9 11 2 18 10 16 20 -2 9 2 16
8 16 5 0 10 -5 10 -11 0 -8 4 -8 13 -2 15 13 47 13 47 0 0 -5 8 -3 17 4 15 12
16 12 10 -4 -4 -11 -3 -16 3 -12 6 3 10 1 10 -4 0 -6 5 -11 11 -11 8 0 7 5 -1
15 -7 9 -9 19 -5 23 4 4 10 1 12 -5 3 -7 9 -13 14 -13 6 0 7 5 3 12 -4 6 -3 8
3 5 6 -4 21 2 33 13 13 11 18 20 12 20 -6 0 -10 14 -9 32 2 27 -3 35 -28 46
-16 8 -43 21 -58 28 -21 10 -26 10 -21 1 4 -6 -4 -1 -18 11 -27 25 -45 67 -25
56 7 -3 3 2 -7 10 -11 9 -17 16 -13 16 4 0 3 10 -4 22 -10 18 -9 20 5 15 9 -4
16 -2 16 3 0 6 -9 10 -20 10 -23 0 -26 20 -7 39 10 10 8 11 -6 5 -10 -3 -17
-3 -16 2 2 10 -5 31 -26 79 -12 26 -12 32 3 50 14 16 14 17 1 7 -30 -23 -42
21 -11 45 15 13 15 13 -4 4 -21 -10 -34 -6 -34 11 0 5 4 7 9 3 5 -3 13 -1 16
5 4 6 3 10 -2 9 -19 -3 -33 2 -33 12 0 5 6 7 13 3 6 -4 4 1 -5 12 -10 11 -19
29 -21 40 -2 10 -9 30 -16 43 -11 19 -11 22 1 15 9 -5 8 -1 -3 12 -27 34 -42
76 -28 84 8 5 8 9 0 11 -6 2 -21 32 -35 66 -19 48 -21 63 -11 67 13 5 15 30 2
42 -3 4 -4 -3 -2 -15 3 -15 0 -21 -8 -18 -7 2 -12 13 -11 25 0 12 -4 18 -9 15
-6 -4 -8 1 -4 10 3 10 2 17 -4 17 -6 0 -8 4 -4 9 3 5 1 13 -5 16 -6 4 -8 16
-4 27 4 14 2 18 -5 14 -6 -4 -12 0 -12 8 -2 19 -4 26 -12 46 -4 8 -19 49 -35
90 l-28 75 -123 0 c-67 1 -124 -2 -127 -6z m71 -239 c-2 -11 1 -20 7 -20 6 0
8 -9 5 -20 -3 -11 -1 -20 5 -20 6 0 7 -7 4 -16 -3 -8 -2 -12 4 -9 9 5 11 1 10
-20 0 -3 7 -19 15 -35 8 -16 15 -32 15 -35 -1 -5 92 -292 106 -330 6 -15 -9
-16 -170 -14 -100 1 -176 6 -176 11 0 5 9 7 19 3 11 -3 22 -2 25 3 3 6 -2 9
-11 8 -9 0 -18 4 -20 10 -2 7 6 10 21 9 22 -3 24 -1 16 15 -5 9 -6 21 -2 25 4
5 2 5 -5 1 -7 -4 -9 -14 -6 -24 4 -13 3 -14 -6 -6 -16 15 -2 47 19 41 10 -2
17 1 17 10 0 8 -8 12 -21 8 -12 -3 -15 -2 -8 1 6 3 10 9 7 14 -4 7 12 65 32
110 3 8 5 21 4 28 -1 6 3 12 9 12 6 0 9 -4 5 -9 -3 -5 -2 -12 3 -15 4 -2 9 4
9 15 1 10 -2 19 -7 19 -9 0 -8 19 2 36 4 6 9 23 12 38 5 28 34 58 48 50 4 -3
5 3 1 12 -4 12 -3 15 6 10 8 -6 7 3 -4 23 -9 17 -12 37 -8 44 4 7 8 15 9 20 3
15 4 17 8 17 3 0 3 -9 1 -20z m-25 -90 c-6 -12 -14 -19 -17 -17 -2 3 0 14 6
25 6 11 9 22 7 24 -1 3 1 2 6 -2 6 -5 5 -16 -2 -30z m-130 -566 c0 -8 -5 -12
-10 -9 -6 4 -8 11 -5 16 9 14 15 11 15 -7z"/>
<path d="M577 1558 c-15 -12 -14 -13 10 -14 16 -1 22 1 15 3 -6 3 -10 9 -6 14
7 12 1 11 -19 -3z"/>
<path d="M566 1521 c-3 -5 1 -11 9 -14 9 -4 12 -1 8 9 -6 16 -10 17 -17 5z"/>
<path d="M546 1491 c-4 -5 -1 -13 5 -17 8 -4 9 -3 5 4 -4 7 -3 12 3 12 5 0 12
-7 14 -15 4 -12 5 -11 3 1 -1 20 -21 30 -30 15z"/>
<path d="M520 1405 c0 -8 29 -12 39 -5 9 5 4 8 -13 8 -14 0 -26 -2 -26 -3z"/>
<path d="M514 1379 c-4 -7 -3 -9 4 -5 5 3 13 0 15 -6 4 -9 6 -10 6 -1 1 17
-16 25 -25 12z"/>
<path d="M505 1350 c-4 -6 -1 -18 7 -27 11 -15 11 -16 -7 -9 -16 6 -18 5 -7
-5 10 -11 16 -10 30 5 12 12 13 16 3 14 -7 -2 -16 3 -19 11 -3 9 0 11 8 6 9
-5 11 -4 6 3 -9 15 -13 15 -21 2z"/>
<path d="M820 1885 c0 -2 6 -8 13 -14 10 -8 14 -7 14 2 0 8 -6 14 -14 14 -7 0
-13 -1 -13 -2z"/>
<path d="M1935 1810 c3 -5 8 -10 11 -10 2 0 4 5 4 10 0 6 -5 10 -11 10 -5 0
-7 -4 -4 -10z"/>
<path d="M2091 1804 c0 -11 3 -14 6 -6 3 7 2 16 -1 19 -3 4 -6 -2 -5 -13z"/>
<path d="M2451 1813 c-1 -17 16 -25 25 -12 4 7 3 9 -4 5 -5 -3 -13 0 -15 6 -4
9 -6 10 -6 1z"/>
<path d="M1920 1790 c6 -11 13 -20 16 -20 2 0 0 9 -6 20 -6 11 -13 20 -16 20
-2 0 0 -9 6 -20z"/>
<path d="M1870 1777 c0 -4 -5 -5 -11 -2 -6 4 -5 -2 3 -14 7 -12 17 -21 22 -21
6 0 5 5 -2 12 -10 10 -7 15 10 24 l23 13 -22 -2 c-13 -1 -23 -5 -23 -10z"/>
<path d="M1900 1766 c0 -2 7 -7 16 -10 8 -3 12 -2 9 4 -6 10 -25 14 -25 6z"/>
<path d="M1818 1731 l-26 -29 27 2 c15 0 28 6 28 13 0 9 -4 10 -14 2 -8 -7
-13 -8 -13 -1 0 15 26 33 35 24 5 -4 5 -1 1 6 -10 16 -9 16 -38 -17z"/>
<path d="M1810 1680 c0 -5 5 -10 10 -10 6 0 10 5 10 10 0 6 -4 10 -10 10 -5 0
-10 -4 -10 -10z"/>
<path d="M2455 1680 c3 -5 8 -10 11 -10 2 0 4 5 4 10 0 6 -5 10 -11 10 -5 0
-7 -4 -4 -10z"/>
<path d="M910 1676 c0 -2 8 -10 18 -17 15 -13 16 -12 3 4 -13 16 -21 21 -21
13z"/>
<path d="M1794 1662 c6 -9 3 -12 -9 -10 -20 3 -40 -37 -24 -47 5 -4 9 -3 8 2
-1 4 -1 16 0 26 1 14 5 16 20 7 15 -7 19 -7 17 5 -1 8 -6 18 -11 22 -4 4 -5 2
-1 -5z"/>
<path d="M2434 1638 c-4 -7 -4 -10 1 -6 4 4 14 0 22 -10 13 -15 13 -15 3 6
-12 25 -16 27 -26 10z"/>
<path d="M1787 1599 c7 -7 15 -10 18 -7 3 3 -2 9 -12 12 -14 6 -15 5 -6 -5z"/>
<path d="M2430 1595 c0 -8 2 -15 4 -15 2 0 6 7 10 15 3 8 1 15 -4 15 -6 0 -10
-7 -10 -15z"/>
<path d="M1758 1583 c7 -3 16 -2 19 1 4 3 -2 6 -13 5 -11 0 -14 -3 -6 -6z"/>
<path d="M2415 1560 c-3 -5 -1 -10 4 -10 6 0 11 5 11 10 0 6 -2 10 -4 10 -3 0
-8 -4 -11 -10z"/>
<path d="M1760 1540 c-8 -5 -12 -12 -9 -15 4 -3 12 1 19 10 14 17 11 19 -10 5z"/>
<path d="M2380 1540 c8 -5 20 -10 25 -10 6 0 3 5 -5 10 -8 5 -19 10 -25 10 -5
0 -3 -5 5 -10z"/>
<path d="M2335 1529 c-4 -6 -5 -12 -2 -15 2 -3 7 2 10 11 7 17 1 20 -8 4z"/>
<path d="M1740 1482 c0 -5 7 -9 15 -9 8 0 12 4 9 9 -3 4 -9 8 -15 8 -5 0 -9
-4 -9 -8z"/>
<path d="M1720 1461 c0 -6 4 -13 10 -16 6 -3 7 1 4 9 -7 18 -14 21 -14 7z"/>
<path d="M1735 1420 c3 -5 8 -10 11 -10 2 0 4 5 4 10 0 6 -5 10 -11 10 -5 0
-7 -4 -4 -10z"/>
<path d="M995 1400 c-3 -5 -1 -10 4 -10 6 0 11 5 11 10 0 6 -2 10 -4 10 -3 0
-8 -4 -11 -10z"/>
<path d="M1720 1405 c0 -5 5 -17 10 -25 5 -8 10 -10 10 -5 0 6 -5 17 -10 25
-5 8 -10 11 -10 5z"/>
<path d="M1710 1360 c0 -5 5 -10 11 -10 5 0 7 5 4 10 -3 6 -8 10 -11 10 -2 0
-4 -4 -4 -10z"/>
<path d="M1734 1323 c1 -12 5 -25 9 -28 4 -3 5 -2 2 2 -3 3 1 13 8 21 8 11 8
14 0 9 -6 -4 -14 -1 -17 5 -2 7 -4 3 -2 -9z"/>
<path d="M2550 1243 c0 -5 5 -15 10 -23 7 -12 9 -10 7 8 -1 19 -17 33 -17 15z"/>
<path d="M1735 1199 c-4 -6 -5 -12 -2 -15 2 -3 7 2 10 11 7 17 1 20 -8 4z"/>
<path d="M2534 1182 c3 -5 1 -12 -6 -14 -8 -3 -9 -6 -1 -11 6 -4 13 0 17 8 3
8 0 17 -6 21 -6 4 -8 3 -4 -4z"/>
<path d="M2177 1161 c-4 -17 -3 -21 5 -13 5 5 8 16 6 23 -3 8 -7 3 -11 -10z"/>
<path d="M2472 1101 c-11 -7 -10 -9 3 -14 11 -5 14 -3 9 5 -5 8 -2 9 10 5 10
-4 15 -3 11 3 -7 12 -16 12 -33 1z"/>
<path d="M1100 1086 c0 -2 8 -10 18 -17 15 -13 16 -12 3 4 -13 16 -21 21 -21
13z"/>
<path d="M2467 1069 c7 -7 15 -10 18 -7 3 3 -2 9 -12 12 -14 6 -15 5 -6 -5z"/>
<path d="M2483 1038 c-18 -23 -25 -43 -8 -23 9 11 21 19 26 17 6 -1 8 2 4 8
-8 13 -10 13 -22 -2z"/>
<path d="M630 1022 c0 -5 7 -9 15 -9 8 0 12 4 9 9 -3 4 -9 8 -15 8 -5 0 -9 -4
-9 -8z"/>
<path d="M670 1020 c0 -5 5 -10 10 -10 6 0 10 5 10 10 0 6 -4 10 -10 10 -5 0
-10 -4 -10 -10z"/>
<path d="M706 1021 c-4 -5 3 -7 14 -4 23 6 26 13 6 13 -8 0 -17 -4 -20 -9z"/>
<path d="M1130 1026 c0 -2 7 -7 16 -10 8 -3 12 -2 9 4 -6 10 -25 14 -25 6z"/>
<path d="M764 1002 c23 -26 23 -26 23 -7 0 8 -3 13 -5 10 -3 -3 -12 1 -21 7
-10 8 -9 4 3 -10z"/>
<path d="M715 1000 c-3 -5 -1 -10 4 -10 6 0 11 5 11 10 0 6 -2 10 -4 10 -3 0
-8 -4 -11 -10z"/>
<path d="M382 899 c-15 -23 -15 -29 -1 -29 5 0 8 4 4 9 -3 6 2 14 11 19 9 5
12 12 7 15 -5 3 -14 -3 -21 -14z"/>
<path d="M1180 900 c8 -5 20 -10 25 -10 6 0 3 5 -5 10 -8 5 -19 10 -25 10 -5
0 -3 -5 5 -10z"/>
<path d="M2464 882 c4 -3 14 -7 22 -8 9 -1 13 0 10 4 -4 3 -14 7 -22 8 -9 1
-13 0 -10 -4z"/>
<path d="M355 850 c3 -5 8 -10 11 -10 2 0 4 5 4 10 0 6 -5 10 -11 10 -5 0 -7
-4 -4 -10z"/>
<path d="M2476 715 c-9 -26 -7 -32 5 -12 6 10 9 21 6 23 -2 3 -7 -2 -11 -11z"/>
<path d="M2206 677 c3 -10 9 -15 12 -12 3 3 0 11 -7 18 -10 9 -11 8 -5 -6z"/>
<path d="M2130 665 c-7 -9 -8 -15 -2 -15 5 0 12 7 16 15 3 8 4 15 2 15 -2 0
-9 -7 -16 -15z"/>
<path d="M1695 660 c-3 -6 1 -7 9 -4 18 7 21 14 7 14 -6 0 -13 -4 -16 -10z"/>
<path d="M2470 659 c0 -5 5 -7 10 -4 6 3 10 8 10 11 0 2 -4 4 -10 4 -5 0 -10
-5 -10 -11z"/>
<path d="M115 649 c-4 -6 -5 -12 -2 -15 2 -3 7 2 10 11 7 17 1 20 -8 4z"/>
<path d="M216 647 c3 -10 9 -15 12 -12 3 3 0 11 -7 18 -10 9 -11 8 -5 -6z"/>
<path d="M423 653 c4 -3 1 -13 -6 -22 -11 -14 -10 -14 5 -2 16 12 16 31 1 31
-4 0 -3 -3 0 -7z"/>
<path d="M882 651 c-11 -7 -10 -9 3 -14 9 -4 14 -3 10 2 -3 5 1 12 7 14 7 3 9
6 3 6 -5 0 -16 -3 -23 -8z"/>
<path d="M1307 647 c-3 -8 0 -14 7 -14 7 0 13 6 13 14 0 7 -4 13 -8 13 -4 0
-9 -6 -12 -13z"/>
<path d="M2083 653 c-7 -2 -13 -9 -13 -14 0 -6 4 -8 9 -5 5 4 11 3 14 -1 2 -5
2 -3 1 4 -2 6 2 14 9 17 7 2 8 4 2 4 -5 0 -16 -2 -22 -5z"/>
<path d="M385 640 c-3 -6 1 -7 9 -4 18 7 21 14 7 14 -6 0 -13 -4 -16 -10z"/>
<path d="M478 643 c7 -3 16 -2 19 1 4 3 -2 6 -13 5 -11 0 -14 -3 -6 -6z"/>
<path d="M1175 640 c3 -5 8 -10 11 -10 2 0 4 5 4 10 0 6 -5 10 -11 10 -5 0 -7
-4 -4 -10z"/>
<path d="M2000 626 c0 -2 7 -7 16 -10 8 -3 12 -2 9 4 -6 10 -25 14 -25 6z"/>
</g>
</svg>
