<?xml version="1.0" standalone="no"?>
<!DOCTYPE svg PUBLIC "-//W3C//DTD SVG 20010904//EN"
 "http://www.w3.org/TR/2001/REC-SVG-20010904/DTD/svg10.dtd">
<svg version="1.0" xmlns="http://www.w3.org/2000/svg"
 width="300.000000pt" height="300.000000pt" viewBox="0 0 300.000000 300.000000"
 preserveAspectRatio="xMidYMid meet">
<metadata>
Created by potrace 1.14, written by Peter Selinger 2001-2017
</metadata>
<g transform="translate(0.000000,300.000000) scale(0.100000,-0.100000)"
fill="#000000" stroke="none">
<path d="M1320 2990 c-654 -90 -1153 -554 -1291 -1200 -19 -87 -23 -136 -23
-290 0 -205 17 -311 76 -485 145 -429 504 -788 933 -933 174 -59 280 -76 485
-76 205 0 311 17 485 76 429 145 788 504 933 933 59 174 76 280 76 485 0 154
-4 203 -23 290 -98 458 -378 831 -781 1039 -218 112 -403 159 -650 166 -85 2
-184 0 -220 -5z m656 -805 c77 -22 129 -67 165 -140 26 -54 32 -78 36 -164 l6
-101 -115 0 -116 0 -4 76 c-3 69 -6 79 -31 100 -53 46 -126 19 -147 -54 -6
-22 -10 -174 -10 -375 0 -383 2 -396 65 -417 49 -16 99 -5 125 27 17 22 20 40
20 134 l0 109 -55 0 -55 0 0 105 0 105 166 0 166 0 -4 -242 c-3 -238 -4 -244
-29 -299 -34 -72 -88 -123 -158 -150 -46 -17 -73 -20 -152 -17 -83 3 -103 7
-154 33 -71 36 -118 94 -140 170 -14 46 -16 116 -13 472 l3 418 27 55 c42 85
83 124 160 151 65 22 176 24 244 4z m-629 -640 c84 -352 153 -643 153 -647 0
-5 -49 -8 -109 -8 l-108 0 -20 98 -19 97 -129 0 -129 0 -19 -97 -20 -98 -108
0 c-60 0 -109 3 -109 6 0 9 299 1265 305 1282 3 9 26 12 82 10 l77 -3 153
-640z"/>
<path d="M1076 1543 c-22 -109 -42 -208 -44 -220 -4 -22 -2 -23 82 -23 l86 0
-6 38 c-3 20 -22 120 -43 220 l-36 184 -39 -199z"/>
</g>
</svg>
